<svg fill="none" version="1.1" viewBox="0 0 165.6 166" xmlns="http://www.w3.org/2000/svg">
 <path d="m112.6 0h-59.62c-29.28 0-53.01 23.78-53.01 53.13v59.75c0 29.34 23.73 53.12 53.01 53.12h59.62c29.28 0 53.01-23.78 53.01-53.12v-59.75c0-29.34-23.73-53.13-53.01-53.13z" fill="#13171a"/>
 <path d="m49.75 41.25c2.32-2.101 5.03-3.722 7.977-4.771 2.947-1.048 6.071-1.503 9.193-1.338v7.872c-2.051-0.1127-4.103 0.2125-6.02 0.9541s-3.654 1.883-5.098 3.348c-2.78 3.912-4.116 8.673-3.777 13.46v44.26c-0.3386 4.791 0.9969 9.551 3.777 13.46 1.432 1.576 3.195 2.814 5.162 3.625 1.967 0.81 4.089 1.174 6.213 1.064v7.7c-3.125 0.159-6.251-0.302-9.198-1.358-2.947-1.056-5.656-2.685-7.972-4.794-2.283-2.566-4.02-5.572-5.105-8.833-1.085-3.262-1.495-6.711-1.205-10.14v-45.55c-0.3197-3.408 0.0517-6.845 1.092-10.1 1.04-3.26 2.728-6.276 4.961-8.865z" fill="#7e858b"/>
 <path d="m77.27 41.25c4.69-4.236 10.87-6.432 17.17-6.108v7.872c-2.058-0.1133-4.116 0.2114-6.04 0.9528-1.924 0.7415-3.669 1.883-5.12 3.349-2.765 3.918-4.086 8.678-3.735 13.46v44.26c-0.351 4.786 0.9692 9.546 3.735 13.46 1.436 1.571 3.199 2.806 5.166 3.616 1.966 0.811 4.086 1.177 6.21 1.073v7.7c-3.16 0.183-6.325-0.266-9.31-1.322-2.985-1.057-5.73-2.698-8.074-4.83-2.276-2.569-4.005-5.577-5.082-8.838-1.078-3.262-1.481-6.709-1.185-10.13v-45.55c-0.2933-3.423 0.1111-6.869 1.188-10.13 1.077-3.261 2.805-6.269 5.079-8.84z" fill="#f7f8f9"/>
 <path d="m104.9 41.25c4.692-4.232 10.87-6.428 17.17-6.108v7.872c-2.065-0.1167-4.131 0.2062-6.062 0.9477s-3.683 1.884-5.141 3.354c-2.729 3.993-3.974 8.818-3.52 13.64v44.09c-0.351 4.786 0.969 9.546 3.734 13.46 1.438 1.569 3.202 2.802 5.167 3.612 1.966 0.81 4.085 1.178 6.208 1.077v7.7c-6.309 0.303-12.48-1.909-17.17-6.152-2.313-2.554-4.084-5.553-5.205-8.814-1.122-3.261-1.57-6.716-1.319-10.16v-45.55c-0.3006-3.413 0.088-6.852 1.143-10.11 1.055-3.259 2.754-6.272 4.996-8.859z" fill="#7e858b"/>
</svg>
